<svg width="8070" height="900" viewBox="0 0 8070 900" fill="none" xmlns="http://www.w3.org/2000/svg">
<path fill-rule="evenodd" clip-rule="evenodd" d="M900 900H0V0H900V900ZM138 815H196V144H282L281.905 815H340L339.926 145H424V331H482L482.111 86H138V815ZM424 815H482V570H424V815ZM569 86V815H627V86H569ZM704 331H762V86H704V331Z" fill="black"/>
<path d="M1061.45 448H1020.51V174.067H1066.26L1149.95 366.723H1151.35L1235.04 174.067H1280.59V448H1239.45V258.755H1237.65L1166.81 418.901H1134.09L1063.05 258.755H1061.45V448Z" fill="black"/>
<path d="M1432.71 451.612C1413.85 451.612 1397.46 447.599 1383.54 439.571C1369.63 431.544 1358.86 420.038 1351.23 405.054C1343.61 390.069 1339.79 372.142 1339.79 351.271V329.797C1339.79 309.997 1343.54 292.805 1351.03 278.222C1358.53 263.639 1369.03 252.333 1382.54 244.306C1396.19 236.279 1412.31 232.265 1430.91 232.265C1449.77 232.265 1465.96 236.413 1479.47 244.708C1493.12 253.002 1503.55 264.575 1510.78 279.426C1518 294.276 1521.61 311.736 1521.61 331.804V352.073H1383.74V357.09C1383.74 374.884 1388.23 389.267 1397.19 400.237C1406.15 411.074 1418.2 416.493 1433.31 416.493C1440.81 416.493 1447.5 415.355 1453.38 413.081C1459.27 410.673 1464.15 407.261 1468.03 402.846C1472.05 398.297 1474.99 393.013 1476.86 386.992H1519.21C1517.6 395.555 1514.66 403.716 1510.38 411.476C1506.09 419.235 1500.34 426.125 1493.12 432.146C1486.03 438.167 1477.46 442.916 1467.43 446.395C1457.4 449.873 1445.82 451.612 1432.71 451.612ZM1383.74 320.967H1478.07C1478.07 320.833 1478.07 320.7 1478.07 320.566C1478.07 310.532 1476.13 301.501 1472.25 293.474C1468.37 285.312 1462.88 278.824 1455.79 274.007C1448.83 269.191 1440.6 266.783 1431.11 266.783C1421.61 266.783 1413.31 269.191 1406.22 274.007C1399.13 278.824 1393.58 285.312 1389.56 293.474C1385.68 301.501 1383.74 310.532 1383.74 320.566C1383.74 320.7 1383.74 320.833 1383.74 320.967Z" fill="black"/>
<path d="M1576.8 448V235.877H1621.35V263.772H1622.96C1624.7 259.357 1627.64 254.742 1631.79 249.925C1636.07 245.109 1641.69 241.095 1648.65 237.884C1655.6 234.54 1663.97 232.867 1673.73 232.867C1676.68 232.867 1679.35 233.001 1681.76 233.269C1684.3 233.402 1686.64 233.67 1688.78 234.071V273.405C1686.78 272.87 1684.03 272.469 1680.56 272.201C1677.08 271.934 1673.46 271.8 1669.72 271.8C1657.81 271.8 1648.38 274.074 1641.42 278.623C1634.47 283.038 1629.45 289.059 1626.37 296.685C1623.43 304.311 1621.96 312.873 1621.96 322.372V448H1576.8Z" fill="black"/>
<path d="M1919.77 235.877C1912.95 256.347 1906.19 276.282 1899.5 295.681C1892.95 314.947 1886.59 333.477 1880.44 351.271C1874.28 369.064 1868.4 385.855 1862.78 401.642C1857.29 417.429 1852.21 431.945 1847.52 445.19L1842.11 459.84C1833.28 483.253 1822.51 499.509 1809.8 508.606C1797.09 517.838 1780.43 522.454 1759.83 522.454C1755.95 522.454 1751.8 522.253 1747.38 521.852C1743.1 521.45 1739.42 520.982 1736.35 520.447V486.732C1738.08 487 1740.49 487.2 1743.57 487.334C1746.78 487.602 1749.79 487.735 1752.6 487.735C1764.64 487.735 1773.74 485.528 1779.89 481.113C1786.18 476.698 1790.46 469.272 1792.74 458.837L1795.35 449.605L1719.69 235.877H1769.06L1819.83 404.452H1821.23L1872.61 235.877H1919.77Z" fill="black"/>
<path d="M2014.49 451.211C1993.89 451.211 1977.17 445.458 1964.32 433.952C1951.48 422.446 1945.06 406.793 1945.06 386.992C1945.06 368.262 1951.41 353.344 1964.12 342.24C1976.97 331.001 1995.56 325.382 2019.91 325.382H2073.69V305.113C2073.69 293.072 2070.22 283.774 2063.26 277.218C2056.44 270.663 2046.8 267.385 2034.36 267.385C2026.33 267.385 2019.44 268.723 2013.69 271.398C2007.94 273.94 2003.46 277.62 2000.24 282.436C1997.03 287.119 1995.16 292.604 1994.63 298.892H1952.88C1953.42 289.928 1955.36 281.433 1958.7 273.405C1962.05 265.378 1967 258.354 1973.55 252.333C1980.24 246.179 1988.67 241.363 1998.84 237.884C2009.14 234.406 2021.32 232.667 2035.36 232.667C2051.15 232.667 2065.2 235.275 2077.51 240.493C2089.95 245.711 2099.72 253.538 2106.81 263.973C2114.03 274.409 2117.64 287.587 2117.64 303.508V448H2075.3V421.911H2073.69C2070.62 427.396 2066.4 432.347 2061.05 436.762C2055.83 441.177 2049.35 444.722 2041.59 447.398C2033.96 449.94 2024.93 451.211 2014.49 451.211ZM2027.94 417.295C2036.64 417.295 2044.4 415.623 2051.22 412.278C2058.18 408.934 2063.66 404.318 2067.67 398.431C2071.69 392.544 2073.69 385.788 2073.69 378.162V354.682H2027.54C2014.56 354.682 2004.99 357.492 1998.84 363.111C1992.82 368.596 1989.81 375.754 1989.81 384.584C1989.81 395.688 1993.69 403.917 2001.45 409.268C2009.21 414.62 2018.04 417.295 2027.94 417.295Z" fill="black"/>
<path d="M2180.46 448V235.877H2224.21V264.375H2226.42C2228.56 259.291 2231.97 254.34 2236.65 249.524C2241.47 244.574 2247.55 240.56 2254.91 237.483C2262.4 234.272 2271.17 232.667 2281.2 232.667C2292.04 232.667 2301.47 234.138 2309.5 237.082C2317.66 240.025 2324.35 244.105 2329.57 249.323C2334.78 254.541 2338.73 260.762 2341.41 267.987H2343.21C2345.75 261.833 2349.84 256.146 2355.45 250.929C2361.07 245.577 2368.3 241.229 2377.13 237.884C2385.96 234.406 2396.19 232.667 2407.83 232.667C2430.04 232.667 2447.3 239.088 2459.61 251.932C2471.92 264.776 2478.07 281.901 2478.07 303.307V448H2433.52V314.545C2433.52 305.582 2431.92 297.822 2428.7 291.266C2425.49 284.71 2420.88 279.693 2414.86 276.215C2408.84 272.603 2401.48 270.796 2392.78 270.796C2383.95 270.796 2376.39 272.736 2370.1 276.616C2363.82 280.362 2359 285.714 2355.66 292.671C2352.44 299.494 2350.84 307.655 2350.84 317.154V448H2307.49V317.154C2307.49 306.585 2305.75 297.956 2302.27 291.266C2298.93 284.443 2294.18 279.359 2288.02 276.014C2281.87 272.536 2274.65 270.796 2266.35 270.796C2258.73 270.796 2251.77 272.536 2245.48 276.014C2239.19 279.359 2234.17 284.443 2230.43 291.266C2226.68 297.956 2224.81 306.451 2224.81 316.753V448H2180.46Z" fill="black"/>
<path d="M2614.94 371.941H2659.49C2659.89 377.828 2661.56 383.447 2664.51 388.798C2667.45 394.15 2671.46 398.833 2676.55 402.846C2681.63 406.86 2687.85 410.071 2695.21 412.479C2702.7 414.753 2711.33 415.891 2721.1 415.891C2732.87 415.891 2742.97 414.151 2751.4 410.673C2759.83 407.194 2766.32 402.244 2770.87 395.822C2775.42 389.4 2777.69 381.908 2777.69 373.346C2777.69 362.91 2774.15 354.682 2767.06 348.662C2759.97 342.507 2749.06 337.691 2734.35 334.212L2689.39 322.974C2677.62 320.165 2666.65 315.816 2656.48 309.93C2646.31 304.043 2638.08 296.149 2631.8 286.249C2625.51 276.215 2622.36 263.839 2622.36 249.123C2622.36 231.596 2626.91 216.812 2636.01 204.771C2645.11 192.73 2657.15 183.633 2672.13 177.479C2687.12 171.19 2703.51 168.046 2721.3 168.046C2739.09 168.046 2755.35 171.19 2770.07 177.479C2784.92 183.633 2796.82 192.664 2805.79 204.571C2814.75 216.344 2819.44 230.793 2819.84 247.918H2776.09C2775.55 240.159 2773.14 233.068 2768.86 226.646C2764.58 220.224 2758.43 215.073 2750.4 211.193C2742.37 207.313 2732.47 205.374 2720.7 205.374C2705.05 205.374 2692.34 208.919 2682.57 216.01C2672.94 223.101 2668.12 233.001 2668.12 245.711C2668.12 254.675 2671.26 262.301 2677.55 268.589C2683.84 274.743 2693.34 279.292 2706.05 282.235L2750.8 293.273C2764.58 296.618 2776.89 301.3 2787.73 307.321C2798.7 313.208 2807.33 321.168 2813.62 331.202C2820.04 341.103 2823.25 353.812 2823.25 369.332C2823.25 387.394 2818.7 402.712 2809.6 415.289C2800.64 427.731 2788.26 437.23 2772.48 443.786C2756.69 450.208 2738.43 453.418 2717.69 453.418C2698.69 453.418 2682.64 450.943 2669.52 445.993C2656.41 441.043 2645.91 434.554 2638.02 426.527C2630.12 418.5 2624.3 409.736 2620.56 400.237C2616.95 390.738 2615.07 381.306 2614.94 371.941Z" fill="black"/>
<path d="M3147.95 235.877L3092.97 448H3046.41L3002.26 291.467H3000.85L2956.7 448H2909.94L2855.16 235.877H2900.11L2935.03 397.628H2936.83L2980.58 235.877H3022.73L3066.48 397.628H3068.28L3103.2 235.877H3147.95Z" fill="black"/>
<path d="M3195.92 448V235.877H3240.47V448H3195.92ZM3191.7 184.101C3191.7 176.743 3194.25 170.722 3199.33 166.04C3204.55 161.223 3210.83 158.815 3218.19 158.815C3225.55 158.815 3231.77 161.223 3236.86 166.04C3241.94 170.722 3244.48 176.743 3244.48 184.101C3244.48 191.326 3241.94 197.346 3236.86 202.163C3231.77 206.845 3225.55 209.187 3218.19 209.187C3210.83 209.187 3204.55 206.845 3199.33 202.163C3194.25 197.346 3191.7 191.326 3191.7 184.101Z" fill="black"/>
<path d="M3308.5 448V159.618H3353.05V448H3308.5Z" fill="black"/>
<path d="M3503.36 451.612C3484.5 451.612 3468.11 447.599 3454.2 439.571C3440.28 431.544 3429.51 420.038 3421.89 405.054C3414.26 390.069 3410.45 372.142 3410.45 351.271V329.797C3410.45 309.997 3414.19 292.805 3421.69 278.222C3429.18 263.639 3439.68 252.333 3453.19 244.306C3466.84 236.279 3482.96 232.265 3501.56 232.265C3520.42 232.265 3536.61 236.413 3550.12 244.708C3563.77 253.002 3574.21 264.575 3581.43 279.426C3588.66 294.276 3592.27 311.736 3592.27 331.804V352.073H3454.4V357.09C3454.4 374.884 3458.88 389.267 3467.84 400.237C3476.81 411.074 3488.85 416.493 3503.97 416.493C3511.46 416.493 3518.15 415.355 3524.04 413.081C3529.92 410.673 3534.81 407.261 3538.69 402.846C3542.7 398.297 3545.64 393.013 3547.52 386.992H3589.86C3588.25 395.555 3585.31 403.716 3581.03 411.476C3576.75 419.235 3571 426.125 3563.77 432.146C3556.68 438.167 3548.12 442.916 3538.08 446.395C3528.05 449.873 3516.48 451.612 3503.36 451.612ZM3454.4 320.967H3548.72C3548.72 320.833 3548.72 320.7 3548.72 320.566C3548.72 310.532 3546.78 301.501 3542.9 293.474C3539.02 285.312 3533.53 278.824 3526.44 274.007C3519.49 269.191 3511.26 266.783 3501.76 266.783C3492.26 266.783 3483.97 269.191 3476.87 274.007C3469.78 278.824 3464.23 285.312 3460.22 293.474C3456.34 301.501 3454.4 310.532 3454.4 320.566C3454.4 320.7 3454.4 320.833 3454.4 320.967Z" fill="black"/>
<path d="M3647.46 448V235.877H3691.2V264.375H3693.41C3695.55 259.291 3698.96 254.34 3703.65 249.524C3708.46 244.574 3714.55 240.56 3721.91 237.483C3729.4 234.272 3738.16 232.667 3748.2 232.667C3759.04 232.667 3768.47 234.138 3776.5 237.082C3784.66 240.025 3791.35 244.105 3796.56 249.323C3801.78 254.541 3805.73 260.762 3808.4 267.987H3810.21C3812.75 261.833 3816.83 256.146 3822.45 250.929C3828.07 245.577 3835.3 241.229 3844.13 237.884C3852.96 234.406 3863.19 232.667 3874.83 232.667C3897.04 232.667 3914.3 239.088 3926.61 251.932C3938.92 264.776 3945.07 281.901 3945.07 303.307V448H3900.52V314.545C3900.52 305.582 3898.91 297.822 3895.7 291.266C3892.49 284.71 3887.87 279.693 3881.85 276.215C3875.83 272.603 3868.48 270.796 3859.78 270.796C3850.95 270.796 3843.39 272.736 3837.1 276.616C3830.81 280.362 3826 285.714 3822.65 292.671C3819.44 299.494 3817.84 307.655 3817.84 317.154V448H3774.49V317.154C3774.49 306.585 3772.75 297.956 3769.27 291.266C3765.93 284.443 3761.18 279.359 3755.02 276.014C3748.87 272.536 3741.64 270.796 3733.35 270.796C3725.72 270.796 3718.77 272.536 3712.48 276.014C3706.19 279.359 3701.17 284.443 3697.43 291.266C3693.68 297.956 3691.81 306.451 3691.81 316.753V448H3647.46Z" fill="black"/>
<path d="M1009.44 773.244C1004.55 773.244 1001.44 770.045 1001.44 764.979V650.785C1001.44 645.72 1004.55 642.521 1009.44 642.521C1014.33 642.521 1017.44 645.72 1017.44 650.785V764.979C1017.44 770.045 1014.33 773.244 1009.44 773.244Z" fill="black"/>
<path d="M1065.85 773.6C1061.32 773.6 1058.12 770.223 1058.12 765.335V685.799C1058.12 681.178 1061.14 677.979 1065.41 677.979C1069.67 677.979 1072.7 681.178 1072.7 685.799V694.33H1073.05C1078.2 684.377 1088.07 677.979 1102.38 677.979C1122.64 677.979 1134.37 691.042 1134.37 712.015V765.335C1134.37 770.223 1131.17 773.6 1126.64 773.6C1122.11 773.6 1118.91 770.223 1118.91 765.335V714.77C1118.91 699.84 1111.89 691.664 1097.67 691.664C1083.09 691.664 1073.58 701.973 1073.58 717.613V765.335C1073.58 770.223 1070.38 773.6 1065.85 773.6Z" fill="black"/>
<path d="M1177.27 750.672V692.286H1169.54C1165.1 692.286 1162.61 689.976 1162.61 685.888C1162.61 681.889 1165.1 679.578 1169.54 679.578H1177.27V663.76C1177.27 658.872 1180.47 655.495 1185.01 655.495C1189.54 655.495 1192.74 658.872 1192.74 663.76V679.578H1204.65C1209.09 679.578 1211.58 681.889 1211.58 685.888C1211.58 689.976 1209.09 692.286 1204.65 692.286H1192.74V747.295C1192.74 755.115 1195.49 758.848 1203.22 759.381L1204.56 759.47C1209.62 759.825 1211.93 761.869 1211.93 765.513C1211.93 770.223 1209.27 772.711 1200.65 772.711H1199.67C1184.74 772.711 1177.27 765.424 1177.27 750.672Z" fill="black"/>
<path d="M1281.5 773.6C1254.22 773.6 1238.22 756.004 1238.22 726.145C1238.22 696.996 1254.66 677.979 1280.16 677.979C1303.8 677.979 1320.42 695.663 1320.42 720.99C1320.42 726.589 1317.22 729.966 1311.89 729.966H1254.13C1254.13 748.628 1264.35 760.181 1280.88 760.181C1291.89 760.181 1298.65 756.271 1305.85 745.784C1307.45 743.562 1309.22 742.674 1311.62 742.674C1315.71 742.674 1318.47 745.34 1318.47 749.428C1318.47 750.672 1318.02 752.271 1317.31 753.96C1311.36 766.49 1298.38 773.6 1281.5 773.6ZM1254.22 717.88H1304.43C1304.07 701.884 1294.21 691.397 1279.9 691.397C1265.5 691.397 1255.19 701.973 1254.22 717.88Z" fill="black"/>
<path d="M1361.99 773.6C1357.46 773.6 1354.26 770.223 1354.26 765.335V685.799C1354.26 681.178 1357.28 677.979 1361.55 677.979C1365.81 677.979 1368.84 681.178 1368.84 685.799V694.686H1369.19C1371.86 685.088 1380.92 677.979 1390.16 677.979C1393.54 677.979 1395.94 678.778 1397.45 680.2C1398.78 681.444 1399.41 683.222 1399.41 685.354C1399.41 687.754 1398.61 689.531 1397.01 690.775C1395.41 692.108 1393.01 692.73 1389.63 692.73C1375.68 692.73 1369.72 702.772 1369.72 714.592V765.335C1369.72 770.223 1366.53 773.6 1361.99 773.6Z" fill="black"/>
<path d="M1437.16 664.026C1431.91 664.026 1427.56 659.672 1427.56 654.429C1427.56 649.097 1431.91 644.831 1437.16 644.831C1442.49 644.831 1446.84 649.097 1446.84 654.429C1446.84 659.672 1442.49 664.026 1437.16 664.026ZM1437.16 773.6C1432.62 773.6 1429.43 770.223 1429.43 765.335V686.243C1429.43 681.355 1432.62 677.979 1437.16 677.979C1441.69 677.979 1444.89 681.355 1444.89 686.243V765.335C1444.89 770.223 1441.69 773.6 1437.16 773.6Z" fill="black"/>
<path d="M1522.27 773.6C1496.68 773.6 1479.44 755.204 1479.44 725.789C1479.44 696.285 1496.68 677.979 1522.27 677.979C1547.78 677.979 1565.02 696.285 1565.02 725.789C1565.02 755.204 1547.78 773.6 1522.27 773.6ZM1522.27 760.003C1538.63 760.003 1549.29 747.562 1549.29 725.789C1549.29 704.017 1538.63 691.575 1522.27 691.575C1505.92 691.575 1495.17 704.017 1495.17 725.789C1495.17 747.562 1505.92 760.003 1522.27 760.003Z" fill="black"/>
<path d="M1606.59 773.6C1602.06 773.6 1598.86 770.223 1598.86 765.335V685.799C1598.86 681.178 1601.88 677.979 1606.15 677.979C1610.41 677.979 1613.43 681.178 1613.43 685.799V694.686H1613.79C1616.46 685.088 1625.52 677.979 1634.76 677.979C1638.14 677.979 1640.54 678.778 1642.05 680.2C1643.38 681.444 1644 683.222 1644 685.354C1644 687.754 1643.2 689.531 1641.61 690.775C1640.01 692.108 1637.61 692.73 1634.23 692.73C1620.28 692.73 1614.32 702.772 1614.32 714.592V765.335C1614.32 770.223 1611.12 773.6 1606.59 773.6Z" fill="black"/>
<path d="M1763.76 773.6C1740.21 773.6 1724.22 754.76 1724.22 725.789C1724.22 696.818 1740.12 677.979 1763.41 677.979C1776.65 677.979 1787.31 684.466 1792.82 694.597H1793.18V650.43C1793.18 645.542 1796.38 642.165 1800.91 642.165C1805.44 642.165 1808.64 645.542 1808.64 650.43V766.046C1808.64 770.489 1805.53 773.6 1801.09 773.6C1796.73 773.6 1793.18 770.578 1793.18 766.046V755.471H1792.91C1787.84 766.49 1778.25 773.6 1763.76 773.6ZM1766.69 760.003C1782.6 760.003 1793.27 746.495 1793.27 725.789C1793.27 705.172 1782.6 691.575 1766.69 691.575C1750.34 691.575 1740.03 704.905 1740.03 725.789C1740.03 746.762 1750.34 760.003 1766.69 760.003Z" fill="black"/>
<path d="M1886.47 773.6C1859.19 773.6 1843.19 756.004 1843.19 726.145C1843.19 696.996 1859.63 677.979 1885.14 677.979C1908.78 677.979 1925.39 695.663 1925.39 720.99C1925.39 726.589 1922.19 729.966 1916.86 729.966H1859.1C1859.1 748.628 1869.32 760.181 1885.85 760.181C1896.87 760.181 1903.62 756.271 1910.82 745.784C1912.42 743.562 1914.2 742.674 1916.6 742.674C1920.68 742.674 1923.44 745.34 1923.44 749.428C1923.44 750.672 1922.99 752.271 1922.28 753.96C1916.33 766.49 1903.35 773.6 1886.47 773.6ZM1859.19 717.88H1909.4C1909.04 701.884 1899.18 691.397 1884.87 691.397C1870.47 691.397 1860.17 701.973 1859.19 717.88Z" fill="black"/>
<path d="M1991.32 773.6C1974.87 773.6 1961.99 766.224 1957.55 754.671C1957.01 753.338 1956.83 752.183 1956.83 751.027C1956.83 746.939 1959.86 744.629 1963.86 744.629C1966.61 744.629 1968.83 746.051 1970.61 749.25C1975.23 757.337 1980.74 760.98 1992.56 760.98C2004.38 760.98 2012.38 755.826 2012.38 747.206C2012.38 740.541 2008.56 736.986 1998.16 734.409L1984.03 730.854C1966.17 726.411 1957.55 717.969 1957.55 704.994C1957.55 688.909 1971.68 677.979 1992.56 677.979C2007.76 677.979 2021.26 686.51 2023.66 697.618C2023.84 698.507 2023.93 699.218 2023.93 699.929C2023.93 703.572 2021.62 705.972 2017.89 705.972C2014.86 705.972 2012.73 704.994 2011.04 701.795C2007.04 694.063 2001.09 690.687 1991.67 690.687C1980.56 690.687 1972.83 696.285 1972.83 704.194C1972.83 710.593 1977.81 715.036 1987.94 717.524L2001.71 720.901C2021 725.611 2028.11 732.365 2028.11 745.962C2028.11 762.491 2013.27 773.6 1991.32 773.6Z" fill="black"/>
<path d="M2070.74 664.026C2065.5 664.026 2061.15 659.672 2061.15 654.429C2061.15 649.097 2065.5 644.831 2070.74 644.831C2076.08 644.831 2080.43 649.097 2080.43 654.429C2080.43 659.672 2076.08 664.026 2070.74 664.026ZM2070.74 773.6C2066.21 773.6 2063.01 770.223 2063.01 765.335V686.243C2063.01 681.355 2066.21 677.979 2070.74 677.979C2075.28 677.979 2078.48 681.355 2078.48 686.243V765.335C2078.48 770.223 2075.28 773.6 2070.74 773.6Z" fill="black"/>
<path d="M2154.88 806.836C2139.42 806.658 2126.54 800.526 2120.05 790.307C2118.8 788.352 2118.27 786.574 2118.27 784.53C2118.27 780.62 2121.11 777.865 2125.2 777.865C2127.78 777.865 2129.29 778.754 2131.69 781.42C2139.6 790.129 2146.09 793.506 2155.51 793.684C2172.04 793.95 2182.08 784.441 2182.08 770.667V756.093H2181.72C2176.03 766.135 2165.02 772.711 2152.04 772.711C2128.49 772.711 2113.03 754.138 2113.03 725.434C2113.03 696.463 2128.49 677.979 2152.4 677.979C2165.46 677.979 2175.68 684.377 2181.81 694.774H2182.08V685.977C2182.08 681.178 2185.37 677.979 2189.81 677.979C2194.25 677.979 2197.54 681.178 2197.54 685.977V770.134C2197.54 792.173 2181.19 807.103 2154.88 806.836ZM2155.15 759.114C2171.24 759.114 2182.08 745.784 2182.08 725.434C2182.08 705.083 2171.24 691.575 2155.15 691.575C2139.24 691.575 2128.85 704.728 2128.85 725.434C2128.85 746.14 2139.24 759.114 2155.15 759.114Z" fill="black"/>
<path d="M2243.56 773.6C2239.02 773.6 2235.82 770.223 2235.82 765.335V685.799C2235.82 681.178 2238.85 677.979 2243.11 677.979C2247.38 677.979 2250.4 681.178 2250.4 685.799V694.33H2250.75C2255.91 684.377 2265.77 677.979 2280.08 677.979C2300.34 677.979 2312.07 691.042 2312.07 712.015V765.335C2312.07 770.223 2308.87 773.6 2304.34 773.6C2299.81 773.6 2296.61 770.223 2296.61 765.335V714.77C2296.61 699.84 2289.59 691.664 2275.37 691.664C2260.8 691.664 2251.29 701.973 2251.29 717.613V765.335C2251.29 770.223 2248.09 773.6 2243.56 773.6Z" fill="black"/>
<g clip-path="url(#clip0_20_12)">
<path d="M7633.87 668.191C7600.88 558.828 7569.51 450.153 7537.7 339.933C7579.48 339.933 7619.9 339.933 7662.09 339.933C7675.6 412.518 7689.21 485.726 7703.62 563.147C7720.24 485.503 7735.9 412.389 7751.58 339.193C7786.51 339.193 7819.98 339.193 7854.71 339.193C7870.4 413.768 7886.04 488.098 7901.98 563.863C7915.42 488.106 7928.55 414.153 7941.8 339.493C7983.91 339.493 8025.38 339.493 8069.07 339.493C8036.99 449.709 8005.12 559.206 7973.34 668.389C7931.63 668.389 7891.48 668.389 7849.46 668.389C7833.37 607.548 7817.35 546.987 7802.79 491.93C7788.23 547.049 7772.19 607.719 7756.02 668.877C7714.6 668.877 7675.05 668.877 7633.87 668.191Z" fill="black"/>
<path d="M6219.95 672.839C6147.18 674.821 6083.51 657.816 6036.38 600.73C6001.01 557.885 5989.08 506.54 5988.61 452.456C5988.02 384.494 6002.8 321.128 6056.83 274.452C6128.95 212.144 6211.07 207.766 6296.08 241.474C6359.83 266.751 6391.53 318.141 6400.22 386.74C6359.93 386.74 6320.72 386.74 6279.65 386.74C6272.96 361.341 6260.79 339.025 6231.55 330.186C6186.05 316.432 6141.65 335.526 6124.16 379.733C6106.71 423.809 6107 469.103 6122.83 513.559C6135.73 549.769 6165.93 569.349 6203.37 568.681C6244.34 567.953 6265.93 551.048 6280.48 507.622C6319.54 507.622 6358.92 507.622 6398.3 507.622C6399.58 588.989 6323.66 659.893 6219.95 672.839Z" fill="black"/>
<path d="M6541.65 667.621C6456.21 641.447 6411.77 568.655 6424.75 478.117C6437.59 388.525 6497.05 336.275 6586.94 334.626C6652.15 333.432 6707.77 351.897 6742.22 411.3C6784.46 484.1 6768.33 586.92 6707.36 637.322C6664.5 672.747 6613.77 677.105 6561.03 671.295C6555.05 670.638 6549.15 669.246 6541.65 667.621ZM6552.64 551.507C6560.39 571.629 6574.84 584.498 6596.52 583.269C6619.28 581.976 6632 566.146 6637.71 545.014C6645.39 516.603 6646.04 487.979 6636.95 459.762C6629.35 436.158 6613.38 422.978 6594.48 423.265C6573.94 423.578 6557.96 436.892 6550.94 461.232C6542.56 490.249 6543.48 519.465 6552.64 551.507Z" fill="black"/>
<path d="M7303.46 344.932C7371.65 326.296 7435.14 328.684 7490.51 375.952C7521.76 402.636 7535.77 438.646 7539.9 478.406C7546.3 540.232 7534.72 597.531 7483.06 637.479C7424.16 683.023 7357.35 684.623 7291.02 657.033C7228.5 631.031 7202.62 578.032 7200.43 512.812C7197.61 428.422 7231.53 373.615 7303.46 344.932ZM7335 563.512C7345.96 577.714 7359.69 586.113 7378.24 582.395C7398.26 578.385 7411.39 564.699 7413.4 545.748C7416.27 518.866 7417.75 491.068 7414.04 464.472C7410.17 436.887 7391.08 422.776 7369.71 423.484C7348.61 424.181 7331.46 440.276 7325.74 466.463C7318.72 498.579 7319.22 530.365 7335 563.512Z" fill="black"/>
<path d="M7001.06 336.087C7004.45 350.377 7006.5 364.507 7007.25 378.706C7007.99 392.71 7007.41 406.785 7007.41 422.606C6987.02 422.606 6967.23 422.606 6945.77 422.606C6945.77 504.459 6945.77 584.566 6945.77 666.244C6905.6 666.244 6867.13 666.244 6827.01 666.244C6827.01 586.428 6827.01 506.306 6827.01 424.519C6809.08 424.519 6792.67 424.519 6774.77 424.519C6774.77 394.599 6774.77 366.31 6774.77 336.655C6791 336.655 6806.9 336.655 6823.81 336.655C6825.52 322.393 6826.62 309.233 6828.73 296.241C6837.53 242.1 6873.53 208.416 6928.39 206.642C6958.14 205.68 6988.05 209.853 7020.45 211.868C7014.41 243.057 7009.11 270.348 7004.34 294.93C6985.14 298.318 6967.21 299.263 6951.36 305.511C6945.94 307.647 6945.77 323.093 6942.24 335.96C6963.51 335.96 6981.34 335.96 7001.06 336.087Z" fill="black"/>
<path d="M7108.44 664.739C7056.95 649.127 7039.05 628.782 7038.4 576.568C7036.95 462.574 7037.71 348.553 7037.66 234.544C7037.66 232.69 7038.73 230.839 7039.57 228.094C7077.55 228.094 7115.53 228.094 7156.53 228.094C7156.53 269.559 7156.64 310.796 7156.52 352.031C7156.31 417.731 7155.66 483.429 7155.83 549.127C7155.9 575.838 7159.87 578.659 7193.91 581.534C7199.21 606.991 7204.6 632.889 7210.24 660.003C7176.24 672.131 7143.35 671.364 7108.44 664.739Z" fill="black"/>
<path d="M5570.77 0C5498.81 0 5440.34 23.8092 5390.87 66.1374C5364.2 110.053 5416.31 147.707 5476.32 110.053C5503.31 93.122 5534.79 84.6559 5570.77 84.6559C5669.71 84.6559 5750.66 160.847 5750.66 253.969V465.61C5750.66 558.731 5669.71 634.92 5570.77 634.92C5471.82 634.92 5390.87 558.731 5390.87 465.61V268.959C5390.87 216.05 5300.93 217.151 5300.93 268.959V465.61C5300.93 605.289 5422.35 719.58 5570.77 719.58C5719.18 719.58 5840.6 605.289 5840.6 465.61V253.969C5840.6 114.286 5719.18 0 5570.77 0Z" fill="black"/>
<path d="M5505.4 350.516C5485.76 271.005 5414.85 211.684 5331 211.641C5232.04 211.71 5151.09 294.217 5151.09 395.062V624.337C5151.09 725.219 5232.11 807.76 5331.13 807.76C5387.57 807.76 5428.01 784.91 5452.36 765.262C5468.69 752.08 5493.66 749.545 5509.4 763.431C5525.17 777.34 5529.38 800.145 5515.92 816.293C5488.14 849.607 5430.04 899.47 5331.13 899.47C5182.67 899.47 5061.19 775.781 5061.07 624.559C5061.07 624.485 5061.07 624.411 5061.07 624.337V395.062C5061.07 394.93 5061.07 394.799 5061.07 394.666C5061.28 243.523 5182.63 119.93 5330.91 119.93C5330.93 119.93 5330.96 119.93 5330.99 119.93C5464.41 119.969 5576.01 220.077 5597.15 350.267C5601.13 374.785 5580.61 395.062 5555.77 395.062C5530.94 395.062 5511.36 374.629 5505.4 350.516Z" fill="black"/>
</g>
<rect x="4478" width="50" height="900" fill="black"/>
<defs>
<clipPath id="clip0_20_12">
<rect width="3008" height="900" fill="white" transform="translate(5061.07)"/>
</clipPath>
</defs>
</svg>
